<?xml version="1.0" encoding="UTF-8"?><svg id="Layer_2" xmlns="http://www.w3.org/2000/svg" xmlns:xlink="http://www.w3.org/1999/xlink" viewBox="0 0 301.01 209.11"><defs><style>.cls-1{fill:url(#linear-gradient-2);}.cls-2{fill:url(#linear-gradient-3);}.cls-3{fill:url(#linear-gradient);}</style><linearGradient id="linear-gradient" x1="0" y1="104.56" x2="301.01" y2="104.56" gradientUnits="userSpaceOnUse"><stop offset="0" stop-color="#00aeef"/><stop offset=".13" stop-color="#05b0ed"/><stop offset=".31" stop-color="#15b8e8"/><stop offset=".5" stop-color="#30c5e0"/><stop offset=".71" stop-color="#54d7d4"/><stop offset=".92" stop-color="#83eec6"/><stop offset="1" stop-color="#96f8c1"/></linearGradient><linearGradient id="linear-gradient-2" x1="100.62" y1="106.24" x2="298.06" y2="106.24" gradientUnits="userSpaceOnUse"><stop offset="0" stop-color="#00aeef"/><stop offset="1" stop-color="#96f8c1"/></linearGradient><linearGradient id="linear-gradient-3" x1="132.12" y1="106.24" x2="224.18" y2="106.24" gradientUnits="userSpaceOnUse"><stop offset="0" stop-color="#00aeef"/><stop offset=".13" stop-color="#06b0ed"/><stop offset=".31" stop-color="#17b9e7"/><stop offset=".51" stop-color="#33c7df"/><stop offset=".73" stop-color="#5adad3"/><stop offset=".96" stop-color="#8cf3c3"/><stop offset="1" stop-color="#96f8c1"/></linearGradient></defs><g id="Layer_2-2"><g id="Layer_2-2"><path class="cls-3" d="M288.89,63.97c-2.81,0-5.4,3.13-7.46,8.37C262.87,30.25,211.72,0,151.51,0S38.08,31.49,20.51,74.94c-2.18-6.79-5.13-10.96-8.38-10.96-6.7,0-12.13,17.71-12.13,39.55s5.43,39.55,12.13,39.55c2.59,0,4.99-2.66,6.96-7.17,8.07,22.84,25.57,42.62,49.02,56.64,1.39,9.4,8.43,16.56,16.93,16.56,3.82,0,7.34-1.46,10.2-3.91,4.24-3.63,7-9.45,7-16.04,0-.77-.05-1.52-.12-2.26-.97-9.95-8.24-17.69-17.08-17.69-4.04,0-7.75,1.63-10.69,4.34-24.18-15.7-39.47-38.79-39.47-64.53,0-47.3,51.59-85.64,115.22-85.64s115.22,38.34,115.22,85.64c0,24.41-13.74,46.44-35.79,62.04-2.19-1.18-4.63-1.85-7.2-1.85-7.97,0-14.65,6.29-16.6,14.82-.38,1.64-.59,3.35-.59,5.13,0,5.93,2.24,11.24,5.79,14.9,3.04,3.13,7.03,5.05,11.41,5.05,9.35,0,16.94-8.66,17.18-19.44,20.36-13.28,35.71-31.09,43.55-51.44,1.73,3.08,3.71,4.84,5.81,4.84,6.7,0,12.13-17.71,12.13-39.55s-5.43-39.55-12.13-39.55h.01Z"/><ellipse class="cls-1" cx="114.03" cy="106.24" rx="13.41" ry="33.41"/><ellipse class="cls-2" cx="187.26" cy="106.24" rx="13.41" ry="33.41"/></g></g></svg>