<?xml version="1.0" encoding="UTF-8"?><svg id="abel" xmlns="http://www.w3.org/2000/svg" viewBox="0 0 301.02 382.22"><defs><style>.cls-1{fill:#00aeef;}</style></defs><g id="Layer_1-2"><path class="cls-1" d="M150.5,214.6c-50.31,0-92.02-1.05-91.01,49.38,1.34,66.61,34.3,118.2,91.01,118.25,56.71-.05,88.88-51.66,91.01-118.25,1.58-49.38-40.7-49.38-91.01-49.38Z"/><g><path class="cls-1" d="M289.6,252.15c7.93,12.51,16.18,36.18,8.12,41.29-8.05,5.1-25.04-13.04-32.97-25.55-7.93-12.51-12.14-24.05-4.09-29.15,8.05-5.1,21.01,.9,28.93,13.42Z"/><path class="cls-1" d="M11.42,252.15c-7.93,12.51-16.18,36.18-8.12,41.29,8.05,5.1,25.04-13.04,32.97-25.55s12.14-24.05,4.09-29.15c-8.05-5.1-21.01,.9-28.93,13.42Z"/></g></g><g id="Layer_2-2"><path class="cls-1" d="M288.89,63.97c-2.81,0-5.4,3.13-7.46,8.37C262.87,30.25,211.72,0,151.51,0S38.08,31.49,20.51,74.94c-2.18-6.79-5.13-10.96-8.38-10.96-6.7,0-12.13,17.71-12.13,39.55s5.43,39.55,12.13,39.55c2.59,0,4.99-2.66,6.96-7.17,8.07,22.84,25.57,42.62,49.02,56.64,1.39,9.4,8.43,16.56,16.93,16.56,3.82,0,7.34-1.46,10.2-3.91,4.24-3.63,7-9.45,7-16.04,0-.77-.05-1.52-.12-2.26-.97-9.95-8.24-17.69-17.08-17.69-4.04,0-7.75,1.63-10.69,4.34-24.18-15.7-39.47-38.79-39.47-64.53,0-47.3,51.59-85.64,115.22-85.64s115.22,38.34,115.22,85.64c0,24.41-13.74,46.44-35.79,62.04-2.19-1.18-4.63-1.85-7.2-1.85-7.97,0-14.65,6.29-16.6,14.82-.38,1.64-.59,3.35-.59,5.13,0,5.93,2.24,11.24,5.79,14.9,3.04,3.13,7.03,5.05,11.41,5.05,9.35,0,16.94-8.66,17.18-19.44,20.36-13.28,35.71-31.09,43.55-51.44,1.73,3.08,3.71,4.84,5.81,4.84,6.7,0,12.13-17.71,12.13-39.55s-5.43-39.55-12.13-39.55Z"/></g></svg>